<?xml version="1.0" encoding="UTF-8"?>
<svg id="Designs" xmlns="http://www.w3.org/2000/svg" xmlns:xlink="http://www.w3.org/1999/xlink" viewBox="0 0 316.51 188.07">
  <defs>
    <radialGradient id="radial-gradient" cx="236.92" cy="77.6" fx="236.92" fy="77.6" r="91.66" gradientUnits="userSpaceOnUse">
      <stop offset=".04" stop-color="#87e6cd" stop-opacity="0"/>
      <stop offset=".09" stop-color="#87e5cd" stop-opacity=".11"/>
      <stop offset=".21" stop-color="#89e5cd" stop-opacity=".34"/>
      <stop offset=".32" stop-color="#8ae5cd" stop-opacity=".5"/>
      <stop offset=".4" stop-color="#8ae5cd" stop-opacity=".6"/>
      <stop offset=".45" stop-color="#8be5ce" stop-opacity=".63"/>
    </radialGradient>
    <radialGradient id="radial-gradient-2" cx="88.97" cy="96.8" fx="88.97" fy="96.8" r="80.12" gradientUnits="userSpaceOnUse">
      <stop offset=".04" stop-color="#662eef" stop-opacity="0"/>
      <stop offset=".2" stop-color="#662eef" stop-opacity=".23"/>
      <stop offset=".41" stop-color="#662eef" stop-opacity=".5"/>
      <stop offset=".61" stop-color="#662eef" stop-opacity=".71"/>
      <stop offset=".78" stop-color="#662eef" stop-opacity=".87"/>
      <stop offset=".91" stop-color="#662eef" stop-opacity=".97"/>
      <stop offset="1" stop-color="#662eef"/>
    </radialGradient>
  </defs>
  <g id="Liver_only" data-name="Liver only">
    <g>
      <path d="M243.7,24.29c-23.36-9.13-47.59-6.85-52.94-6.22-9.11,1.08-20.44,6.1-17.92,17.37,3.57,15.98,7.06,31.52,7.41,43.38.57,18.91-10.25,53.63-5.76,59.03,9.21-1.73,31.17-2.09,48.03-9.13,7.2-3.01,22.53-18.83,39.34-32.07,16.4-12.92,34.35-23.25,37.21-26.27,6.55-6.9-2.42-17.73-9.71-24.56-12.07-11.31-33.77-16.88-45.67-21.53Z" style="fill: url(#radial-gradient); opacity: .3;"/>
      <path d="M243.54,24.71c-14.39-5.54-30.26-6.45-45.41-4.59-3.64.5-7.34.92-10.82,2.08-6.16,2.03-12.16,5.89-9.95,12.84,2.66,10.96,5.32,21.83,6.8,33.16,3.39,21.64-5.09,42.9-7.16,64.09-.06,1.26-.08,2.37.17,3.46,0-.01-.03-.06-.07-.05,0,0-3.22-1.16-3.22-1.16,13.95-1.5,28.26-1.1,41.8-5.04,1.96-.58,4.67-1.45,6.51-2.2,1.91-.86,3.83-2.2,5.66-3.58,14.86-11.59,27.4-25.94,42.38-37.44,7.33-5.82,15.27-11.22,22.95-16.41,1.43-1.08,2.94-1.82,3.79-3.29,2-4.58-3.26-11.01-6.02-14.69-11.64-14.89-30.27-20.82-47.41-27.17h0ZM243.86,23.87c17.6,6.8,37.87,9.81,51.72,23.74,4.68,4.66,9.52,10.29,9.66,17.46.13,5.05-3.45,8.94-7.46,11.42-7.85,5.4-15.78,10.07-23.71,15.21-16,9.81-30.11,22.27-44.57,34.22-1.89,1.46-3.82,2.89-6.18,4.01-1.93.98-4.7,1.84-6.72,2.62-13.33,4.6-27.89,6.01-41.54,8.63-8.86.85-4.01-21.86-3.46-26.93,1.2-7.7,2.48-15.31,3.3-22.82,1.56-11.23-.06-22.11-2.14-33.2-1-5.44-2.22-11.5-3.33-16.98-.91-4.52-2.24-9.14-.46-13.76,4.44-11.46,18.24-13.07,28.89-12.63,15.74.48,31.32,3.4,45.98,9h0Z" style="fill: #87e6cd;"/>
    </g>
    <g>
      <path d="M40.27,177.66c14.98-6.78,38.26-9.77,54.57-10.34,16.3-.57,19.05-1.14,36.54-8.43,6.74-2.81,22.79-11.01,27-27.11,7.03-26.88,5.13-69.69-1.98-97.13-4.6-17.74-17.18-14.55-29.59-20.55-18.9-3.09-40.92-6.74-59.03,3.35-29.92,11.29-36.35,33.39-41,58.77-4.65,25.38-5.7,45.11-9.02,64.38-1.45,8.45-3.8,21.77-1.86,31.12,1.31,6.29,6.35,10.67,8.18,10.95,4.59.7,12.19-3.2,16.19-5.01Z" style="fill: url(#radial-gradient-2); opacity: .3;"/>
      <path d="M40.08,177.25c15.64-6.68,32.57-9.57,49.36-11.75,8.37-1.02,16.47-1.11,24.32-3.72,5.11-1.71,10.14-4.08,15.12-6.34,10.27-4.61,20.36-11.83,24.21-22.69,3.37-11.51,4.35-23.76,4.96-35.98.58-16.5-.32-33.19-2.91-49.51-.94-5.24-1.71-10.64-3.44-15.65-2.8-8.04-10.21-9.79-17.7-12.09-2.74-.88-5.54-1.93-8.2-3.31,0,0,.64.2.64.2-4.93-.99-9.83-1.96-14.76-2.7-9.76-1.49-19.81-2.1-29.51-.1-4.89.97-9.58,2.74-13.88,5.18-7.67,3.01-14.93,7.38-20.56,13.38-11.6,12.2-14.52,29.1-17.18,45.25-1.36,8.29-2.55,16.6-3.73,24.95-1.19,8.35-2.34,16.75-3.84,25.16-1.36,8.35-3.57,16.68-5.09,24.97-.72,4.12-1.31,8.27-1.36,12.41-.05,4.06.14,8.24,2.29,11.81,1.3,2.14,3.03,4.47,5.41,5.36,5.63.46,10.77-2.65,15.87-4.81h0ZM40.45,178.07c-5.16,2.22-10.54,5.51-16.42,5.22-.75-.12-1.49-.53-2.07-.92-3.64-2.61-6.21-6.55-7.2-10.91-2.21-10.61-.59-21.61.56-32.2,2.19-21.08,3.16-42.39,7.51-63.24,4.16-21.94,11.84-43.1,32.61-54.49,3.78-2.17,7.77-3.89,11.81-5.39,1.25-.7,4.77-2.36,6.89-3.08,17.23-6.05,36.03-3.56,53.65-1.03,11.66,4.83,24.14,2.94,30.32,16.83,2.35,5.46,3.45,11.25,4.69,17,1.15,5.62,2,11.27,2.69,16.94,1.37,11.36,2.01,22.77,1.84,34.22-.13,8.62-.73,17.29-2.18,25.83-1.07,5.95-2.16,12.09-5.07,17.53-8.84,16.63-27.37,23.54-44.53,28.08-8.48,1.97-17.5,1.14-25.88,1.21-16.65.24-33.79,1.83-49.25,8.4h0Z" style="fill: #662eef;"/>
    </g>
    <g>
      <g id="lower">
        <g>
          <g>
            <polyline points="155.25 143.18 162.38 117.83 185.11 110.69 208.09 91.56 215.25 80.14" style="fill: none; stroke: #3bc4f8; stroke-miterlimit: 10; stroke-width: 5.38px;"/>
            <path d="M218.57,82.47c1.19-1.89.62-4.39-1.28-5.58-1.89-1.19-4.39-.62-5.58,1.28-1.19,1.89-.62,4.39,1.28,5.58,1.89,1.19,4.39.62,5.58-1.28Z" style="fill: #3bc4f8;"/>
          </g>
          <g>
            <polyline points="195.25 85.71 193.66 102.11 185.11 110.69" style="fill: none; stroke: #3bc4f8; stroke-miterlimit: 10; stroke-width: 3.59px;"/>
            <path d="M191.87,85.55c.18-1.85,1.83-3.21,3.68-3.03,1.85.18,3.21,1.83,3.03,3.68-.18,1.85-1.83,3.21-3.68,3.03-1.85-.18-3.21-1.83-3.03-3.68Z" style="fill: #3bc4f8;"/>
          </g>
          <g>
            <polyline points="243.56 45.8 220.43 93.81 186.15 110.59" style="fill: none; stroke: #3bc4f8; stroke-miterlimit: 10; stroke-width: 3.59px;"/>
            <path d="M240.45,44.49c.81-1.68,2.82-2.38,4.5-1.57,1.68.81,2.38,2.82,1.57,4.5-.81,1.68-2.82,2.38-4.5,1.57s-2.38-2.82-1.57-4.5Z" style="fill: #3bc4f8;"/>
          </g>
        </g>
        <g>
          <g>
            <polyline points="43.56 83.85 74.19 101.09 133.2 107.81 154.61 141.83 157.95 156.18" style="fill: none; stroke: #3bc4f8; stroke-miterlimit: 10; stroke-width: 5.38px;"/>
            <path d="M41.75,87.47c-1.95-1.1-2.64-3.56-1.54-5.51,1.1-1.95,3.56-2.64,5.51-1.54,1.95,1.1,2.64,3.56,1.54,5.51-1.1,1.95-3.56,2.64-5.51,1.54Z" style="fill: #3bc4f8;"/>
          </g>
          <g>
            <g>
              <polyline points="38.59 164.59 76.65 154.18 116.1 105.86" style="fill: none; stroke: #3bc4f8; stroke-miterlimit: 10; stroke-width: 3.59px;"/>
              <path d="M39.64,167.79c-1.8.49-3.65-.57-4.14-2.36-.49-1.8.57-3.65,2.36-4.14,1.8-.49,3.65.57,4.14,2.36.49,1.8-.57,3.65-2.36,4.14Z" style="fill: #3bc4f8;"/>
            </g>
            <g>
              <polyline points="115.05 105.74 62.56 136.46 37.08 143.44" style="fill: none; stroke: #3bc4f8; stroke-miterlimit: 10; stroke-width: 3.59px;"/>
              <path d="M36.35,140.14c-1.8.49-2.85,2.35-2.36,4.14.49,1.8,2.35,2.85,4.14,2.36,1.8-.49,2.85-2.35,2.36-4.14-.49-1.8-2.35-2.85-4.14-2.36Z" style="fill: #3bc4f8;"/>
            </g>
          </g>
          <g>
            <polyline points="78.75 41.8 82.89 67.19 75.27 87.38 121.11 106.43" style="fill: none; stroke: #3bc4f8; stroke-linecap: round; stroke-linejoin: round; stroke-width: 3.59px;"/>
            <path d="M75.45,42.51c-.3-1.84.95-3.57,2.78-3.87s3.57.95,3.87,2.78c.3,1.84-.95,3.57-2.78,3.87s-3.57-.95-3.87-2.78Z" style="fill: #3bc4f8;"/>
          </g>
          <g>
            <polyline points="62.97 42.92 68.85 52.11 75.27 87.38" style="fill: none; stroke: #3bc4f8; stroke-miterlimit: 10; stroke-width: 3.59px;"/>
            <path d="M60.22,44.88c-1-1.57-.54-3.65,1.02-4.66,1.57-1,3.65-.54,4.66,1.02,1,1.57.54,3.65-1.02,4.66-1.57,1-3.65.54-4.66-1.02Z" style="fill: #3bc4f8;"/>
          </g>
        </g>
        <g>
          <polyline points="93.83 49.79 105.8 65.01 114.03 70.13 116.46 56.31 113.23 42.55" style="fill: none; stroke: #3bc4f8; stroke-linejoin: round; stroke-width: 3.59px;"/>
          <polyline points="113.43 66.55 119.16 85.37 133.2 107.81" style="fill: none; stroke: #3bc4f8; stroke-miterlimit: 10; stroke-width: 5.38px;"/>
        </g>
      </g>
      <g id="upper">
        <g>
          <polyline points="140.18 5.32 138.11 20.88 122.49 34.79 52.87 90 55.41 152.3" style="fill: none; stroke: #ffe98a; stroke-miterlimit: 10; stroke-width: 5.38px;"/>
          <path d="M51.36,152.26c.09,2.23,1.98,3.97,4.21,3.88,2.23-.09,3.97-1.98,3.88-4.21-.09-2.23-1.98-3.97-4.21-3.88-2.23.09-3.97,1.98-3.88,4.21Z" style="fill: #ffe98a;"/>
        </g>
        <g>
          <polyline points="123.29 88.67 129.82 71.39 127.73 31.85" style="fill: none; stroke: #ffe98a; stroke-miterlimit: 10; stroke-width: 5.38px;"/>
          <path d="M127.07,90.1c-.79,2.09-3.13,3.15-5.22,2.36-2.09-.79-3.15-3.13-2.36-5.22.79-2.09,3.13-3.14,5.22-2.36s3.15,3.13,2.36,5.22Z" style="fill: #ffe98a;"/>
        </g>
        <g>
          <polyline points="39.4 63.83 60.65 53.79 104.27 49.75" style="fill: none; stroke: #ffe98a; stroke-miterlimit: 10; stroke-width: 3.59px;"/>
          <path d="M41,66.8c-1.68.8-3.69.08-4.49-1.61-.8-1.68-.08-3.69,1.61-4.49,1.68-.8,3.69-.08,4.49,1.61.8,1.68.08,3.69-1.61,4.49Z" style="fill: #ffe98a;"/>
        </g>
        <g>
          <polyline points="103.18 49.97 63.08 60.01 50.18 72.45" style="fill: none; stroke: #ffe98a; stroke-miterlimit: 10; stroke-width: 3.59px;"/>
          <path d="M47.96,69.91c-1.34,1.29-1.38,3.43-.09,4.77,1.29,1.34,3.43,1.38,4.77.09,1.34-1.29,1.38-3.43.09-4.77-1.29-1.34-3.43-1.38-4.77-.09Z" style="fill: #ffe98a;"/>
        </g>
        <polyline points="176.88 40.39 153.21 44.81 127.73 31.85" style="fill: none; stroke: #ffe98a; stroke-miterlimit: 10; stroke-width: 5.38px;"/>
        <g>
          <polyline points="229.56 33.01 208.31 28.28 161.31 43.52" style="fill: none; stroke: #ffe98a; stroke-miterlimit: 10; stroke-width: 3.59px;"/>
          <path d="M230.13,29.68c1.82.4,2.96,2.21,2.56,4.02-.4,1.82-2.21,2.96-4.02,2.56-1.82-.4-2.96-2.21-2.56-4.02.4-1.82,2.21-2.96,4.02-2.56Z" style="fill: #ffe98a;"/>
        </g>
        <g>
          <polyline points="250.64 66.14 204.15 39.54 161.31 43.52" style="fill: none; stroke: #ffe98a; stroke-miterlimit: 10; stroke-width: 3.59px;"/>
          <path d="M252.17,63.13c1.62.92,2.18,2.99,1.25,4.6-.92,1.62-2.99,2.18-4.6,1.25s-2.18-2.99-1.25-4.6c.92-1.62,2.99-2.18,4.6-1.25Z" style="fill: #ffe98a;"/>
        </g>
        <g>
          <polyline points="237.23 78.62 202.39 49.52 162.35 43.43" style="fill: none; stroke: #ffe98a; stroke-miterlimit: 10; stroke-width: 3.59px;"/>
          <path d="M239.26,75.93c1.43,1.19,1.62,3.32.43,4.75s-3.32,1.62-4.75.43c-1.43-1.19-1.62-3.32-.43-4.75s3.32-1.62,4.75-.43Z" style="fill: #ffe98a;"/>
        </g>
        <g>
          <line x1="129.82" y1="71.39" x2="145.71" y2="72.67" style="fill: none; stroke: #ffe98a; stroke-miterlimit: 10; stroke-width: 3.59px;"/>
          <path d="M145.27,76.02c1.86.15,3.48-1.23,3.63-3.09.15-1.86-1.23-3.48-3.09-3.63-1.86-.15-3.48,1.23-3.63,3.09-.15,1.86,1.23,3.48,3.09,3.63Z" style="fill: #ffe98a;"/>
        </g>
      </g>
    </g>
  </g>
</svg>