<?xml version="1.0" encoding="UTF-8"?>
<svg id="Designs" xmlns="http://www.w3.org/2000/svg" xmlns:xlink="http://www.w3.org/1999/xlink" viewBox="0 0 690.91 153.99">
  <defs>
    <radialGradient id="radial-gradient" cx="201.76" cy="63.7" fx="201.76" fy="63.7" r="74.17" gradientUnits="userSpaceOnUse">
      <stop offset=".04" stop-color="#87e6cd" stop-opacity="0"/>
      <stop offset=".09" stop-color="#87e5cd" stop-opacity=".11"/>
      <stop offset=".21" stop-color="#89e5cd" stop-opacity=".34"/>
      <stop offset=".32" stop-color="#8ae5cd" stop-opacity=".5"/>
      <stop offset=".4" stop-color="#8ae5cd" stop-opacity=".6"/>
      <stop offset=".45" stop-color="#8be5ce" stop-opacity=".63"/>
    </radialGradient>
    <radialGradient id="radial-gradient-2" cx="82.05" cy="79.23" fx="82.05" fy="79.23" r="64.83" gradientUnits="userSpaceOnUse">
      <stop offset=".04" stop-color="#662eef" stop-opacity="0"/>
      <stop offset=".2" stop-color="#662eef" stop-opacity=".23"/>
      <stop offset=".41" stop-color="#662eef" stop-opacity=".5"/>
      <stop offset=".61" stop-color="#662eef" stop-opacity=".71"/>
      <stop offset=".78" stop-color="#662eef" stop-opacity=".87"/>
      <stop offset=".91" stop-color="#662eef" stop-opacity=".97"/>
      <stop offset="1" stop-color="#662eef"/>
    </radialGradient>
    <filter id="outer-glow-1" x="583.37" y="33.64" width="85.22" height="41.76" filterUnits="userSpaceOnUse">
      <feOffset dx="0" dy="0"/>
      <feGaussianBlur result="blur" stdDeviation="6.75"/>
      <feFlood flood-color="#9fffcd" flood-opacity=".75"/>
      <feComposite in2="blur" operator="in"/>
      <feComposite in="SourceGraphic"/>
    </filter>
  </defs>
  <g id="Logo_Horizontal_light" data-name="Logo Horizontal light">
    <g>
      <g>
        <path d="M207.25,20.56c-18.9-7.38-38.51-5.55-42.83-5.03-7.37.88-16.54,4.93-14.5,14.06,2.89,12.93,5.71,25.5,6,35.1.46,15.3-8.29,43.39-4.66,47.77,7.45-1.4,25.22-1.69,38.87-7.38,5.83-2.43,18.23-15.24,31.83-25.95,13.27-10.45,27.79-18.82,30.11-21.26,5.3-5.58-1.96-14.35-7.86-19.88-9.76-9.15-27.33-13.66-36.95-17.42Z" style="fill: url(#radial-gradient); opacity: .3;"/>
        <path d="M207.11,20.9c-11.64-4.48-24.48-5.22-36.74-3.72-2.93.4-6.01.76-8.76,1.68-4.96,1.59-9.86,4.82-8.05,10.39.18.67.64,2.73.83,3.44,3.29,13.93,6.97,28.69,4.45,43.12-.91,6.38-2.24,12.55-3.43,18.68-.91,5.12-2.24,10.26-2.14,15.38.02.39.08.58.13.88,0,0-.02-.05-.06-.04,0,0-2.6-.94-2.6-.94,4.05-.52,7.78-.61,11.58-.88,7.5-.48,15.02-1.15,22.25-3.2,0,0,2.67-.82,2.67-.82,6.23-1.94,10.93-6.96,15.82-11.17,5.65-5.13,11.07-10.49,16.8-15.58,9.09-8.28,19.49-15.22,29.5-22.2,3.88-3.33-1.55-9.88-3.89-13.03-9.41-12.05-24.49-16.84-38.35-21.99h0ZM207.38,20.22c12.08,4.64,25.2,7.04,36.12,14.39,8.86,6.27,21.03,19.85,7.51,28.18-12.73,8.59-25.74,15.72-37.63,25.4-5.98,4.68-11.58,9.8-17.61,14.59-2.19,1.81-4.92,3.38-7.7,4.38-11.55,4.48-24.34,5.69-36.32,7.97-5.22.58-4.33-9.08-4.06-12.28,1.2-12.37,4.38-24.59,4.44-36.89-.45-11.34-3.28-22.8-5.43-33.97,0,0-.24-1.15-.24-1.15-.04-.21-.08-.35-.12-.61-.98-4.29.58-9.44,4-12.27,6.23-5.12,13.62-5.13,19.82-5.01,12.74.39,25.34,2.75,37.21,7.29h0Z" style="fill: #87e6cd;"/>
      </g>
      <g>
        <path d="M42.64,144.66c12.13-5.49,30.96-7.91,44.15-8.37,13.19-.46,15.41-.92,29.57-6.82,5.45-2.27,18.44-8.91,21.85-21.93,5.69-21.75,4.15-56.39-1.61-78.59-3.72-14.36-13.9-11.77-23.94-16.63-15.29-2.5-33.11-5.45-47.77,2.71-24.21,9.13-29.41,27.01-33.17,47.55-3.76,20.54-4.62,36.5-7.3,52.1-1.18,6.83-3.08,17.62-1.5,25.18,1.06,5.09,5.14,8.63,6.62,8.86,3.71.57,9.87-2.59,13.1-4.05Z" style="fill: url(#radial-gradient-2); opacity: .3;"/>
        <path d="M42.49,144.33c12.66-5.4,26.35-7.74,39.94-9.51,4.59-.54,9.14-.81,13.46-1.51,6.46-.94,12.46-3.94,18.45-6.63,8.33-3.74,16.47-9.57,19.59-18.36,2.71-9.31,3.5-19.23,4.01-29.11.31-8.92.07-17.88-.71-26.78-.93-8.71-1.86-17.58-4.43-25.96-1.45-3.84-4.07-6.26-7.97-7.69-3.93-1.51-8.68-2.49-12.98-4.77,0,0,.51.16.51.16-15.43-3.12-32.55-6.26-46.9,1.86-6.25,2.47-12.2,5.99-16.79,10.9-9.39,9.87-11.74,23.55-13.91,36.61-1.08,6.71-2.06,13.43-3.01,20.19-.96,6.76-1.89,13.56-3.1,20.36-1.1,6.75-2.89,13.5-4.12,20.2-.58,3.33-1.06,6.69-1.1,10.04-.04,3.29.12,6.67,1.86,9.55,1.09,1.73,2.59,3.93,4.67,4.37,4.45.19,8.51-2.19,12.55-3.93h0ZM42.79,144.99c-4.22,1.77-8.9,4.74-13.68,4.13-5.5-2.59-7.63-9.04-7.84-14.74-.45-6.96.39-13.95,1.2-20.81,1.78-17.06,2.54-34.3,6.09-51.17,2.62-13.59,7.03-28.28,17.75-37.88,5.29-4.83,11.63-8.2,18.18-10.57,2.87-1.57,7.75-3.47,11.58-4.21,12.28-2.54,25.07-.85,37.26.82,9.38,3.94,19.76,2.46,24.67,13.68,1.89,4.42,2.78,9.11,3.79,13.76,2.69,13.63,3.82,27.49,3.67,41.4-.17,9.27-.94,18.59-3.21,27.86-.53,2.35-1.47,5.04-2.65,7.23-7.15,13.46-22.15,19.05-36.03,22.72-6.86,1.6-14.16.92-20.94.98-13.47.19-27.34,1.48-39.85,6.8h0Z" style="fill: #662eef;"/>
      </g>
      <g>
        <g id="lower">
          <g>
            <g>
              <polyline points="135.68 116.77 141.45 96.25 159.84 90.47 178.43 74.99 184.22 65.75" style="fill: none; stroke: #3bc4f8; stroke-miterlimit: 10; stroke-width: 4.35px;"/>
              <path d="M186.91,67.63c.96-1.53.5-3.55-1.03-4.51-1.53-.96-3.55-.5-4.51,1.03-.96,1.53-.5,3.55,1.03,4.51,1.53.96,3.55.5,4.51-1.03Z" style="fill: #3bc4f8;"/>
            </g>
            <g>
              <polyline points="168.04 70.26 166.76 83.53 159.84 90.47" style="fill: none; stroke: #3bc4f8; stroke-miterlimit: 10; stroke-width: 2.9px;"/>
              <path d="M165.31,70.13c.15-1.5,1.48-2.6,2.98-2.45,1.5.15,2.6,1.48,2.45,2.98-.15,1.5-1.48,2.6-2.98,2.45-1.5-.15-2.6-1.48-2.45-2.98Z" style="fill: #3bc4f8;"/>
            </g>
            <g>
              <polyline points="207.13 37.97 188.42 76.81 160.68 90.39" style="fill: none; stroke: #3bc4f8; stroke-miterlimit: 10; stroke-width: 2.9px;"/>
              <path d="M204.62,36.91c.65-1.36,2.29-1.93,3.64-1.27,1.36.65,1.93,2.29,1.27,3.64-.65,1.36-2.29,1.93-3.64,1.27-1.36-.65-1.93-2.29-1.27-3.64Z" style="fill: #3bc4f8;"/>
            </g>
          </g>
          <g>
            <g>
              <polyline points="45.3 68.75 70.09 82.7 117.83 88.14 135.16 115.67 137.86 127.28" style="fill: none; stroke: #3bc4f8; stroke-miterlimit: 10; stroke-width: 4.35px;"/>
              <path d="M43.84,71.69c-1.58-.89-2.13-2.88-1.25-4.46.89-1.58,2.88-2.13,4.46-1.25,1.58.89,2.13,2.88,1.25,4.46s-2.88,2.13-4.46,1.25Z" style="fill: #3bc4f8;"/>
            </g>
            <g>
              <g>
                <polyline points="41.28 134.08 72.08 125.66 104 86.57" style="fill: none; stroke: #3bc4f8; stroke-miterlimit: 10; stroke-width: 2.9px;"/>
                <path d="M42.13,136.68c-1.45.4-2.95-.46-3.35-1.91-.4-1.45.46-2.95,1.91-3.35,1.45-.4,2.95.46,3.35,1.91.4,1.45-.46,2.95-1.91,3.35Z" style="fill: #3bc4f8;"/>
              </g>
              <g>
                <polyline points="103.15 86.47 60.67 111.32 40.06 116.97" style="fill: none; stroke: #3bc4f8; stroke-miterlimit: 10; stroke-width: 2.9px;"/>
                <path d="M39.47,114.3c-1.45.4-2.31,1.9-1.91,3.35s1.9,2.31,3.35,1.91c1.45-.4,2.31-1.9,1.91-3.35s-1.9-2.31-3.35-1.91Z" style="fill: #3bc4f8;"/>
              </g>
            </g>
            <g>
              <polyline points="73.77 34.73 77.13 55.27 70.96 71.61 108.05 87.03" style="fill: none; stroke: #3bc4f8; stroke-linecap: round; stroke-linejoin: round; stroke-width: 2.9px;"/>
              <path d="M71.1,35.31c-.24-1.49.77-2.89,2.25-3.13,1.49-.24,2.89.77,3.13,2.25.24,1.49-.77,2.89-2.25,3.13-1.49.24-2.89-.77-3.13-2.25Z" style="fill: #3bc4f8;"/>
            </g>
            <g>
              <polyline points="61.01 35.63 65.76 43.07 70.96 71.61" style="fill: none; stroke: #3bc4f8; stroke-miterlimit: 10; stroke-width: 2.9px;"/>
              <path d="M58.78,37.22c-.81-1.27-.44-2.96.83-3.77,1.27-.81,2.96-.44,3.77.83.81,1.27.44,2.96-.83,3.77-1.27.81-2.96.44-3.77-.83Z" style="fill: #3bc4f8;"/>
            </g>
          </g>
          <g>
            <polyline points="85.98 41.19 95.67 53.51 102.32 57.65 104.29 46.47 101.67 35.34" style="fill: none; stroke: #3bc4f8; stroke-linejoin: round; stroke-width: 2.9px;"/>
            <polyline points="101.84 54.75 106.47 69.99 117.83 88.14" style="fill: none; stroke: #3bc4f8; stroke-miterlimit: 10; stroke-width: 4.35px;"/>
          </g>
        </g>
        <g id="upper">
          <g>
            <polyline points="123.48 5.21 121.81 17.8 109.17 29.06 52.83 73.73 54.89 124.14" style="fill: none; stroke: #ffe98a; stroke-miterlimit: 10; stroke-width: 4.35px;"/>
            <path d="M51.61,124.11c.07,1.81,1.6,3.21,3.41,3.14,1.81-.07,3.21-1.6,3.14-3.41-.07-1.81-1.6-3.21-3.41-3.14s-3.21,1.6-3.14,3.41Z" style="fill: #ffe98a;"/>
          </g>
          <g>
            <polyline points="109.81 72.65 115.1 58.67 113.41 26.68" style="fill: none; stroke: #ffe98a; stroke-miterlimit: 10; stroke-width: 4.35px;"/>
            <path d="M112.88,73.81c-.64,1.69-2.53,2.54-4.22,1.91-1.69-.64-2.54-2.53-1.91-4.22.64-1.69,2.53-2.54,4.22-1.91,1.69.64,2.54,2.53,1.91,4.22Z" style="fill: #ffe98a;"/>
          </g>
          <g>
            <polyline points="41.94 52.55 59.13 44.43 94.42 41.16" style="fill: none; stroke: #ffe98a; stroke-miterlimit: 10; stroke-width: 2.9px;"/>
            <path d="M43.23,54.96c-1.36.64-2.99.06-3.63-1.3-.64-1.36-.06-2.99,1.3-3.63,1.36-.64,2.99-.06,3.63,1.3.64,1.36.06,2.99-1.3,3.63Z" style="fill: #ffe98a;"/>
          </g>
          <g>
            <polyline points="93.54 41.34 61.1 49.46 50.66 59.53" style="fill: none; stroke: #ffe98a; stroke-miterlimit: 10; stroke-width: 2.9px;"/>
            <path d="M48.86,57.47c-1.08,1.05-1.12,2.77-.07,3.86,1.05,1.08,2.77,1.12,3.86.07,1.08-1.05,1.12-2.77.07-3.86s-2.77-1.12-3.86-.07Z" style="fill: #ffe98a;"/>
          </g>
          <polyline points="153.18 33.59 134.02 37.17 113.41 26.68" style="fill: none; stroke: #ffe98a; stroke-miterlimit: 10; stroke-width: 4.35px;"/>
          <g>
            <polyline points="195.8 27.62 178.61 23.79 140.58 36.12" style="fill: none; stroke: #ffe98a; stroke-miterlimit: 10; stroke-width: 2.9px;"/>
            <path d="M196.26,24.92c1.47.33,2.4,1.79,2.07,3.26s-1.79,2.4-3.26,2.07c-1.47-.33-2.4-1.79-2.07-3.26.33-1.47,1.79-2.4,3.26-2.07Z" style="fill: #ffe98a;"/>
          </g>
          <g>
            <polyline points="212.86 54.42 175.24 32.9 140.58 36.12" style="fill: none; stroke: #ffe98a; stroke-miterlimit: 10; stroke-width: 2.9px;"/>
            <path d="M214.1,51.99c1.31.75,1.76,2.42,1.01,3.72-.75,1.31-2.42,1.76-3.72,1.01-1.31-.75-1.76-2.42-1.01-3.72.75-1.31,2.42-1.76,3.72-1.01Z" style="fill: #ffe98a;"/>
          </g>
          <g>
            <polyline points="202.01 64.52 173.82 40.97 141.42 36.04" style="fill: none; stroke: #ffe98a; stroke-miterlimit: 10; stroke-width: 2.9px;"/>
            <path d="M203.65,62.34c1.16.97,1.31,2.69.34,3.84-.97,1.16-2.69,1.31-3.84.34-1.16-.97-1.31-2.69-.34-3.84.97-1.16,2.69-1.31,3.84-.34Z" style="fill: #ffe98a;"/>
          </g>
          <g>
            <line x1="115.1" y1="58.67" x2="127.96" y2="59.71" style="fill: none; stroke: #ffe98a; stroke-miterlimit: 10; stroke-width: 2.9px;"/>
            <path d="M127.6,62.42c1.5.12,2.82-1,2.94-2.5.12-1.5-1-2.82-2.5-2.94-1.5-.12-2.82,1-2.94,2.5-.12,1.5,1,2.82,2.5,2.94Z" style="fill: #ffe98a;"/>
          </g>
        </g>
      </g>
    </g>
    <g>
      <path d="M283.77,97.03h-9.25l-1.36,2.42h-1.73l6.49-11.44h2.44l6.47,11.44h-1.7l-1.36-2.42ZM279.48,89.34h-.62l-3.6,6.35h7.79l-3.57-6.35Z" style="fill: #662eef;"/>
      <path d="M290.3,91.5v1.2h.1c.51-1.03,1.39-1.3,4-1.3,2.28,0,3.23.21,3.84.88.48.53.65,1.2.65,2.69v4.48h-1.25v-3.95c0-1.42-.09-1.9-.45-2.32-.41-.5-1.2-.69-2.93-.69-1.96,0-2.95.26-3.5.93-.39.46-.46.84-.46,2.35v3.67h-1.25v-7.94h1.25Z" style="fill: #662eef;"/>
      <path d="M303.19,91.5v1.2h.1c.51-1.03,1.39-1.3,4-1.3,2.28,0,3.23.21,3.84.88.48.53.65,1.2.65,2.69v4.48h-1.25v-3.95c0-1.42-.09-1.9-.45-2.32-.41-.5-1.2-.69-2.93-.69-1.96,0-2.95.26-3.5.93-.39.46-.46.84-.46,2.35v3.67h-1.25v-7.94h1.25Z" style="fill: #662eef;"/>
      <path d="M323.69,91.93c1.01.6,1.42,1.65,1.42,3.53s-.39,2.93-1.34,3.52c-.69.43-1.58.57-3.69.57-2.26,0-3.24-.12-3.96-.51-1.05-.58-1.48-1.6-1.48-3.6,0-1.84.46-2.95,1.46-3.52.65-.38,1.56-.52,3.41-.52,2.51,0,3.5.12,4.17.53ZM315.99,95.52c0,1.6.33,2.32,1.18,2.66.53.21,1.29.27,2.81.27,1.82,0,2.5-.1,3.02-.48.55-.39.77-1.12.77-2.54,0-1.53-.29-2.23-1.03-2.61-.5-.24-1.34-.33-3.02-.33-3.17,0-3.74.46-3.74,3.02Z" style="fill: #662eef;"/>
      <path d="M330.49,89.53v1.97h5.56v1.08h-5.56v3.43c.03,1.51.03,1.56.29,1.89.33.39.89.55,2.09.55,1.12,0,1.54-.12,1.82-.55.19-.29.24-.58.24-1.56v-.5h1.25v.5c0,1.25-.1,1.75-.43,2.23-.46.7-1.32.98-3,.98s-2.61-.26-3.07-.89c-.34-.48-.45-.98-.45-2.23v-3.84h-1.96v-1.08h1.96v-1.97h1.25Z" style="fill: #662eef;"/>
      <path d="M339.07,93.89v-.34c0-1.66,1.01-2.15,4.46-2.15,2.69,0,3.62.19,4.29.89.55.55.67,1.08.67,2.97v4.19h-1.25l.02-.93h-.05c-.6.86-1.18,1.03-3.6,1.03-2.78,0-3.57-.1-4.14-.51-.55-.41-.74-.89-.74-1.89,0-1.24.29-1.84,1.08-2.16.48-.21,1.22-.27,2.97-.27,3.26,0,3.81.1,4.36.86h.1v-.86c0-.82-.09-1.17-.38-1.51-.45-.55-1.17-.7-3.24-.7-2.3,0-2.9.14-3.12.72-.05.1-.09.33-.1.67h-1.32ZM340.56,96.08c-.34.21-.5.55-.5,1.08,0,.57.17.86.58,1.06.36.17,1.2.22,3.21.22,2.66,0,3.29-.26,3.29-1.32s-.75-1.3-3.55-1.3c-2.06,0-2.69.05-3.04.26Z" style="fill: #662eef;"/>
      <path d="M354.05,89.53v1.97h5.56v1.08h-5.56v3.43c.03,1.51.03,1.56.29,1.89.33.39.89.55,2.09.55,1.12,0,1.54-.12,1.82-.55.19-.29.24-.58.24-1.56v-.5h1.25v.5c0,1.25-.1,1.75-.43,2.23-.46.7-1.32.98-3,.98s-2.61-.26-3.07-.89c-.34-.48-.45-.98-.45-2.23v-3.84h-1.96v-1.08h1.96v-1.97h1.25Z" style="fill: #662eef;"/>
      <path d="M372.51,96.99c-.05,1.9-1.17,2.56-4.39,2.56-2.66,0-3.9-.19-4.6-.69-.81-.57-1.2-1.66-1.2-3.36,0-1.89.43-3,1.41-3.57.67-.39,1.58-.53,3.57-.53,2.73,0,3.69.22,4.43,1.05.6.7.77,1.42.81,3.31h-8.85c.03,1.03.21,1.65.58,2.04.48.5,1.34.65,3.72.65,1.8,0,2.51-.14,2.92-.6.21-.21.24-.34.29-.86h1.32ZM371.14,94.68c-.02-1.75-.79-2.18-3.88-2.18-2.75,0-3.41.41-3.55,2.18h7.43Z" style="fill: #662eef;"/>
      <path d="M385.5,99.45h-1.24v-1.01h-.07c-.6.93-1.27,1.12-3.83,1.12-2.13,0-3.05-.14-3.76-.53-1-.58-1.41-1.6-1.41-3.52s.41-2.97,1.39-3.59c.65-.39,1.63-.53,4.08-.53,2.2,0,2.93.22,3.48,1.06h.09v-4.44h1.25v11.44ZM377.38,92.91c-.6.41-.84,1.15-.84,2.59,0,2.47.6,2.95,3.62,2.95,1.94,0,2.81-.12,3.29-.45.6-.39.84-1.12.84-2.45,0-2.61-.55-3.07-3.72-3.07-1.89,0-2.69.12-3.19.43Z" style="fill: #662eef;"/>
      <path d="M397.89,88l6.21,9.71,6.09-9.71h3.07v11.44h-1.53v-10.02h-.64l-6.38,10.02h-1.24l-6.45-10.02h-.67v10.02h-1.53v-11.44h3.05Z" style="fill: #662eef;"/>
      <path d="M417.72,91.5v4.01c0,1.49.12,1.99.58,2.4.45.38,1.18.53,2.66.53,1.9,0,2.88-.26,3.41-.94.34-.39.45-.93.45-2.08v-3.93h1.25v7.94h-1.25v-1.18h-.07c-.63,1.01-1.46,1.29-3.93,1.29-1.96,0-2.97-.21-3.59-.75-.57-.5-.77-1.25-.77-2.9v-4.39h1.25Z" style="fill: #662eef;"/>
      <path d="M430.47,88v11.44h-1.25v-11.44h1.25Z" style="fill: #662eef;"/>
      <path d="M436.1,89.53v1.97h5.56v1.08h-5.56v3.43c.03,1.51.03,1.56.29,1.89.33.39.89.55,2.09.55,1.12,0,1.54-.12,1.82-.55.19-.29.24-.58.24-1.56v-.5h1.25v.5c0,1.25-.1,1.75-.43,2.23-.46.7-1.32.98-3,.98s-2.61-.26-3.07-.89c-.34-.48-.45-.98-.45-2.23v-3.84h-1.96v-1.08h1.96v-1.97h1.25Z" style="fill: #662eef;"/>
      <path d="M445.81,88v1.49h-1.25v-1.49h1.25ZM445.81,91.5v7.94h-1.25v-7.94h1.25Z" style="fill: #662eef;"/>
      <path d="M455.01,94.66v1.48h-6.73v-1.48h6.73Z" style="fill: #662eef;"/>
      <path d="M457.58,88h7.24q3.86.09,4.56.62c.65.5.93,1.36.93,2.92s-.24,2.37-.86,2.88c-.6.53-1.1.67-2.51.7q-.36.02-2.13.02h-5.71v4.31h-1.53v-11.44ZM464.82,93.8c2.78,0,3-.03,3.47-.41.34-.29.46-.72.46-1.8,0-1.18-.09-1.56-.43-1.82-.46-.34-.63-.38-3.5-.43h-5.71v4.46h5.71Z" style="fill: #662eef;"/>
      <path d="M474.33,88v4.67h.1c.53-1,1.44-1.29,4.03-1.29,2.2,0,3.17.22,3.79.88.53.55.67,1.17.67,3.05v4.14h-1.25v-3.74c0-1.65-.07-2.08-.45-2.54-.41-.5-1.2-.69-2.92-.69-1.94,0-2.95.26-3.48.88-.43.48-.5.84-.5,2.35v3.74h-1.25v-11.44h1.25Z" style="fill: #662eef;"/>
      <path d="M486.03,93.89v-.34c0-1.66,1.01-2.15,4.46-2.15,2.69,0,3.62.19,4.29.89.55.55.67,1.08.67,2.97v4.19h-1.25l.02-.93h-.05c-.6.86-1.18,1.03-3.6,1.03-2.78,0-3.57-.1-4.14-.51-.55-.41-.74-.89-.74-1.89,0-1.24.29-1.84,1.08-2.16.48-.21,1.22-.27,2.97-.27,3.26,0,3.81.1,4.36.86h.1v-.86c0-.82-.09-1.17-.38-1.51-.45-.55-1.17-.7-3.24-.7-2.3,0-2.9.14-3.12.72-.05.1-.09.33-.1.67h-1.32ZM487.52,96.08c-.34.21-.5.55-.5,1.08,0,.57.17.86.58,1.06.36.17,1.2.22,3.21.22,2.66,0,3.29-.26,3.29-1.32s-.75-1.3-3.55-1.3c-2.06,0-2.69.05-3.04.26Z" style="fill: #662eef;"/>
      <path d="M499.68,96.68l.02.22c0,.69.07.96.33,1.15.43.33,1.01.39,3.52.39,2.13,0,2.76-.07,3.14-.34.26-.21.38-.48.38-.89,0-.94-.52-1.25-2.11-1.24-.34,0-.6,0-3.64-.03-2.09-.03-2.83-.6-2.83-2.2,0-.84.26-1.41.79-1.8.57-.39,1.73-.55,4.14-.55,2.68,0,3.76.24,4.34,1,.29.36.36.62.36,1.56h-1.34c0-.58-.05-.79-.24-.96-.34-.36-1.29-.5-3.17-.5-1.72,0-2.76.12-3.14.36-.27.19-.39.46-.39.91,0,.87.46,1.08,2.37,1.05.53-.02,2.83.03,3.65.07,1.8.07,2.56.75,2.56,2.32,0,.96-.26,1.51-.89,1.89-.55.33-1.68.46-4.03.46-2.63,0-3.72-.14-4.32-.53-.6-.41-.81-.91-.81-1.92v-.41h1.34Z" style="fill: #662eef;"/>
      <path d="M521.27,96.99c-.05,1.9-1.17,2.56-4.39,2.56-2.66,0-3.89-.19-4.6-.69-.81-.57-1.2-1.66-1.2-3.36,0-1.89.43-3,1.41-3.57.67-.39,1.58-.53,3.57-.53,2.73,0,3.69.22,4.43,1.05.6.7.77,1.42.81,3.31h-8.85c.03,1.03.21,1.65.58,2.04.48.5,1.34.65,3.72.65,1.8,0,2.51-.14,2.92-.6.21-.21.24-.34.29-.86h1.32ZM519.9,94.68c-.02-1.75-.79-2.18-3.88-2.18-2.75,0-3.41.41-3.55,2.18h7.43Z" style="fill: #662eef;"/>
      <path d="M531.84,88v10.11h9.03v1.34h-10.55v-11.44h1.53Z" style="fill: #662eef;"/>
      <path d="M544.76,88v1.49h-1.25v-1.49h1.25ZM544.76,91.5v7.94h-1.25v-7.94h1.25Z" style="fill: #662eef;"/>
      <path d="M548.69,91.5l3.84,6.78h.14l3.86-6.78h1.53l-4.63,7.94h-1.63l-4.58-7.94h1.48Z" style="fill: #662eef;"/>
      <path d="M570.09,96.99c-.05,1.9-1.17,2.56-4.39,2.56-2.66,0-3.89-.19-4.6-.69-.81-.57-1.2-1.66-1.2-3.36,0-1.89.43-3,1.41-3.57.67-.39,1.58-.53,3.57-.53,2.73,0,3.69.22,4.43,1.05.6.7.77,1.42.81,3.31h-8.85c.03,1.03.21,1.65.58,2.04.48.5,1.34.65,3.72.65,1.8,0,2.5-.14,2.92-.6.21-.21.24-.34.29-.86h1.32ZM568.71,94.68c-.02-1.75-.79-2.18-3.88-2.18-2.75,0-3.42.41-3.55,2.18h7.43Z" style="fill: #662eef;"/>
      <path d="M574.2,91.5v1.06h.09c.21-.36.48-.62.89-.84.48-.24,1.15-.33,2.71-.33s2.2.14,2.73.6.81,1.22.81,2.25v.82h-1.29v-.57c0-1.65-.43-2.01-2.38-2.01-3.02,0-3.55.48-3.55,3.28v3.67h-1.25v-7.94h1.25Z" style="fill: #662eef;"/>
      <path d="M591.6,88v11.44h-1.53v-11.44h1.53Z" style="fill: #662eef;"/>
      <path d="M596.11,91.5l.02,1.05c.72-.94,1.32-1.15,3.26-1.15,2.59,0,3.48.31,4.12,1.39.52-1.05,1.42-1.39,3.71-1.39,2.16,0,3.07.24,3.74.96.52.58.62,1.05.62,2.9v4.19h-1.25v-4.46c0-2.09-.5-2.49-3.12-2.49-1.6,0-2.35.19-2.78.7-.45.5-.57,1.18-.57,3.12v3.12h-1.25v-4.46c0-1.15-.1-1.58-.43-1.9-.45-.41-1.22-.58-2.71-.58-1.6,0-2.38.21-2.85.72-.41.46-.5,1.01-.5,3.11v3.12h-1.25v-7.94h1.25Z" style="fill: #662eef;"/>
      <path d="M614.68,93.89v-.34c0-1.66,1.01-2.15,4.46-2.15,2.69,0,3.62.19,4.29.89.55.55.67,1.08.67,2.97v4.19h-1.25l.02-.93h-.05c-.6.86-1.18,1.03-3.6,1.03-2.78,0-3.57-.1-4.14-.51-.55-.41-.74-.89-.74-1.89,0-1.24.29-1.84,1.08-2.16.48-.21,1.22-.27,2.97-.27,3.26,0,3.81.1,4.36.86h.1v-.86c0-.82-.09-1.17-.38-1.51-.45-.55-1.17-.7-3.24-.7-2.3,0-2.9.14-3.12.72-.05.1-.09.33-.1.67h-1.32ZM616.17,96.08c-.34.21-.5.55-.5,1.08,0,.57.17.86.58,1.06.36.17,1.2.22,3.21.22,2.66,0,3.29-.26,3.29-1.32s-.75-1.3-3.55-1.3c-2.06,0-2.69.05-3.04.26Z" style="fill: #662eef;"/>
      <path d="M637.3,91.5v5.95c0,1.2-.07,2.23-.19,2.85-.17.82-.82,1.56-1.65,1.8-.74.24-1.61.31-3.53.31-2.66,0-3.76-.29-4.39-1.15-.29-.39-.38-.69-.38-1.42h1.3c.1,1.17.77,1.48,3.33,1.48,2.4,0,3.31-.17,3.74-.72.36-.45.43-.84.5-2.47h-.09c-.69.86-1.32,1.03-3.88,1.03-2.16,0-3.24-.17-3.86-.62-.86-.63-1.25-1.66-1.25-3.28,0-1.8.53-2.9,1.63-3.41.69-.34,1.63-.45,3.74-.45,1.72,0,2.33.09,2.87.38.36.21.57.39.79.74h.07l-.02-1.01h1.27ZM629.21,92.89c-.62.31-.93,1.12-.93,2.4,0,1.36.33,2.11,1.05,2.45.43.22,1.3.31,2.81.31,1.72,0,2.56-.12,3.02-.41.62-.41.86-1.1.86-2.49,0-2.2-.65-2.66-3.71-2.66-1.66,0-2.56.12-3.11.39Z" style="fill: #662eef;"/>
      <path d="M641.69,88v1.49h-1.25v-1.49h1.25ZM641.69,91.5v7.94h-1.25v-7.94h1.25Z" style="fill: #662eef;"/>
      <path d="M646.1,91.5v1.2h.1c.52-1.03,1.39-1.3,4-1.3,2.28,0,3.23.21,3.84.88.48.53.65,1.2.65,2.69v4.48h-1.25v-3.95c0-1.42-.09-1.9-.45-2.32-.41-.5-1.2-.69-2.93-.69-1.96,0-2.95.26-3.5.93-.39.46-.46.84-.46,2.35v3.67h-1.25v-7.94h1.25Z" style="fill: #662eef;"/>
      <path d="M667.91,91.5v5.95c0,1.2-.07,2.23-.19,2.85-.17.82-.82,1.56-1.65,1.8-.74.24-1.61.31-3.53.31-2.66,0-3.76-.29-4.39-1.15-.29-.39-.38-.69-.38-1.42h1.3c.1,1.17.77,1.48,3.33,1.48,2.4,0,3.31-.17,3.74-.72.36-.45.43-.84.5-2.47h-.09c-.69.86-1.32,1.03-3.88,1.03-2.16,0-3.24-.17-3.86-.62-.86-.63-1.25-1.66-1.25-3.28,0-1.8.53-2.9,1.63-3.41.69-.34,1.63-.45,3.74-.45,1.72,0,2.33.09,2.87.38.36.21.57.39.79.74h.07l-.02-1.01h1.27ZM659.82,92.89c-.62.31-.93,1.12-.93,2.4,0,1.36.33,2.11,1.05,2.45.43.22,1.3.31,2.81.31,1.72,0,2.56-.12,3.02-.41.62-.41.86-1.1.86-2.49,0-2.2-.65-2.66-3.71-2.66-1.66,0-2.56.12-3.11.39Z" style="fill: #662eef;"/>
      <path d="M271.48,112.09h1.78c0-2.8.69-3.41,3.83-3.48l1.44-.05v1.08l-1.36.05c-2.33.05-2.63.31-2.63,2.4h3.98v1.08h-4.02v6.86h-1.25v-6.86h-1.78v-1.08Z" style="fill: #662eef;"/>
      <path d="M289.82,112.52c1.01.6,1.42,1.65,1.42,3.53s-.39,2.93-1.34,3.52c-.69.43-1.58.57-3.69.57-2.26,0-3.24-.12-3.96-.51-1.05-.58-1.48-1.6-1.48-3.6,0-1.84.46-2.95,1.46-3.52.65-.38,1.56-.51,3.41-.51,2.51,0,3.5.12,4.17.53ZM282.12,116.11c0,1.6.33,2.32,1.18,2.66.53.21,1.29.27,2.81.27,1.82,0,2.5-.1,3.02-.48.55-.39.77-1.12.77-2.54,0-1.53-.29-2.23-1.03-2.61-.5-.24-1.34-.33-3.02-.33-3.17,0-3.74.46-3.74,3.02Z" style="fill: #662eef;"/>
      <path d="M295.42,112.09v1.06h.09c.21-.36.48-.62.89-.84.48-.24,1.15-.33,2.71-.33s2.2.14,2.73.6c.53.46.81,1.22.81,2.25v.82h-1.29v-.57c0-1.65-.43-2.01-2.38-2.01-3.02,0-3.55.48-3.55,3.28v3.67h-1.25v-7.94h1.25Z" style="fill: #662eef;"/>
      <path d="M322.6,117.62h-9.25l-1.36,2.42h-1.73l6.49-11.45h2.44l6.47,11.45h-1.7l-1.36-2.42ZM318.31,109.93h-.62l-3.6,6.35h7.79l-3.57-6.35Z" style="fill: #662eef;"/>
      <path d="M329.13,112.09v1.06h.09c.21-.36.48-.62.89-.84.48-.24,1.15-.33,2.71-.33s2.2.14,2.73.6c.53.46.81,1.22.81,2.25v.82h-1.29v-.57c0-1.65-.43-2.01-2.39-2.01-3.02,0-3.55.48-3.55,3.28v3.67h-1.25v-7.94h1.25Z" style="fill: #662eef;"/>
      <path d="M341.62,110.12v1.97h5.56v1.08h-5.56v3.43c.03,1.51.03,1.56.29,1.89.33.39.89.55,2.09.55,1.12,0,1.54-.12,1.82-.55.19-.29.24-.58.24-1.56v-.5h1.25v.5c0,1.25-.1,1.75-.43,2.23-.46.7-1.32.98-3,.98s-2.61-.26-3.07-.89c-.34-.48-.45-.98-.45-2.23v-3.84h-1.96v-1.08h1.96v-1.97h1.25Z" style="fill: #662eef;"/>
      <path d="M351.34,108.59v1.49h-1.25v-1.49h1.25ZM351.34,112.09v7.94h-1.25v-7.94h1.25Z" style="fill: #662eef;"/>
      <path d="M353.69,112.09h1.78c0-2.8.69-3.41,3.83-3.48l1.44-.05v1.08l-1.36.05c-2.33.05-2.63.31-2.63,2.4h3.98v1.08h-4.02v6.86h-1.25v-6.86h-1.78v-1.08Z" style="fill: #662eef;"/>
      <path d="M364.58,108.59v1.49h-1.25v-1.49h1.25ZM364.58,112.09v7.94h-1.25v-7.94h1.25Z" style="fill: #662eef;"/>
      <path d="M377.54,117.15c-.02,1.06-.21,1.63-.67,2.11-.62.65-1.51.87-3.57.87-2.75,0-3.86-.17-4.56-.7-.79-.58-1.17-1.68-1.17-3.36,0-1.87.43-2.97,1.39-3.53.69-.41,1.63-.55,3.59-.55,2.54,0,3.62.22,4.26.89.46.46.64,1.01.69,2.04h-1.3c-.03-1.49-.72-1.84-3.64-1.84-1.56,0-2.33.12-2.81.43-.57.38-.82,1.18-.82,2.64s.31,2.16,1,2.51c.48.26,1.44.36,3.16.36,2.57,0,3.14-.33,3.19-1.87h1.29Z" style="fill: #662eef;"/>
      <path d="M381.64,108.59v1.49h-1.25v-1.49h1.25ZM381.64,112.09v7.94h-1.25v-7.94h1.25Z" style="fill: #662eef;"/>
      <path d="M384.86,114.48v-.34c0-1.66,1.01-2.14,4.46-2.14,2.69,0,3.62.19,4.29.89.55.55.67,1.08.67,2.97v4.19h-1.25l.02-.93h-.05c-.6.86-1.18,1.03-3.6,1.03-2.78,0-3.57-.1-4.14-.51-.55-.41-.74-.89-.74-1.89,0-1.24.29-1.84,1.08-2.16.48-.21,1.22-.27,2.97-.27,3.26,0,3.81.1,4.36.86h.1v-.86c0-.82-.09-1.17-.38-1.51-.45-.55-1.17-.7-3.24-.7-2.3,0-2.9.14-3.12.72-.05.1-.09.33-.1.67h-1.32ZM386.35,116.67c-.34.21-.5.55-.5,1.08,0,.57.17.86.58,1.06.36.17,1.2.22,3.21.22,2.66,0,3.29-.26,3.29-1.32s-.75-1.3-3.55-1.3c-2.06,0-2.69.05-3.04.26Z" style="fill: #662eef;"/>
      <path d="M398.62,108.59v11.45h-1.25v-11.45h1.25Z" style="fill: #662eef;"/>
      <path d="M409.48,108.59v11.45h-1.53v-11.45h1.53Z" style="fill: #662eef;"/>
      <path d="M414,112.09v1.2h.1c.52-1.03,1.39-1.3,4-1.3,2.28,0,3.23.21,3.84.87.48.53.65,1.2.65,2.69v4.48h-1.25v-3.95c0-1.42-.09-1.9-.45-2.32-.41-.5-1.2-.69-2.93-.69-1.96,0-2.95.26-3.5.93-.39.46-.46.84-.46,2.35v3.67h-1.25v-7.94h1.25Z" style="fill: #662eef;"/>
      <path d="M428.1,110.12v1.97h5.56v1.08h-5.56v3.43c.03,1.51.03,1.56.29,1.89.33.39.89.55,2.09.55,1.12,0,1.54-.12,1.82-.55.19-.29.24-.58.24-1.56v-.5h1.25v.5c0,1.25-.1,1.75-.43,2.23-.46.7-1.32.98-3,.98s-2.61-.26-3.07-.89c-.34-.48-.45-.98-.45-2.23v-3.84h-1.96v-1.08h1.96v-1.97h1.25Z" style="fill: #662eef;"/>
      <path d="M446.56,117.58c-.05,1.9-1.17,2.56-4.39,2.56-2.66,0-3.89-.19-4.6-.69-.81-.57-1.2-1.66-1.2-3.36,0-1.89.43-3,1.41-3.57.67-.39,1.58-.53,3.57-.53,2.73,0,3.69.22,4.43,1.05.6.7.77,1.42.81,3.31h-8.85c.03,1.03.21,1.65.58,2.04.48.5,1.34.65,3.72.65,1.8,0,2.51-.14,2.92-.6.21-.21.24-.34.29-.86h1.32ZM445.19,115.27c-.02-1.75-.79-2.18-3.88-2.18-2.75,0-3.41.41-3.55,2.18h7.43Z" style="fill: #662eef;"/>
      <path d="M450.8,108.59v11.45h-1.25v-11.45h1.25Z" style="fill: #662eef;"/>
      <path d="M455.26,108.59v11.45h-1.25v-11.45h1.25Z" style="fill: #662eef;"/>
      <path d="M459.72,108.59v1.49h-1.25v-1.49h1.25ZM459.72,112.09v7.94h-1.25v-7.94h1.25Z" style="fill: #662eef;"/>
      <path d="M473.04,112.09v5.95c0,1.2-.07,2.23-.19,2.85-.17.82-.82,1.56-1.65,1.8-.74.24-1.61.31-3.53.31-2.66,0-3.76-.29-4.39-1.15-.29-.39-.38-.69-.38-1.42h1.3c.1,1.17.77,1.48,3.33,1.48,2.4,0,3.31-.17,3.74-.72.36-.45.43-.84.5-2.47h-.09c-.69.86-1.32,1.03-3.88,1.03-2.16,0-3.24-.17-3.86-.62-.86-.64-1.25-1.66-1.25-3.28,0-1.8.53-2.9,1.63-3.41.69-.34,1.63-.45,3.74-.45,1.72,0,2.33.09,2.87.38.36.21.57.39.79.74h.07l-.02-1.01h1.27ZM464.96,113.48c-.62.31-.93,1.12-.93,2.4,0,1.36.33,2.11,1.05,2.45.43.22,1.3.31,2.81.31,1.72,0,2.56-.12,3.02-.41.62-.41.86-1.1.86-2.49,0-2.2-.65-2.66-3.71-2.66-1.66,0-2.56.12-3.11.39Z" style="fill: #662eef;"/>
      <path d="M486.23,117.58c-.05,1.9-1.17,2.56-4.39,2.56-2.66,0-3.9-.19-4.6-.69-.81-.57-1.2-1.66-1.2-3.36,0-1.89.43-3,1.41-3.57.67-.39,1.58-.53,3.57-.53,2.73,0,3.69.22,4.43,1.05.6.7.77,1.42.81,3.31h-8.85c.03,1.03.21,1.65.58,2.04.48.5,1.34.65,3.72.65,1.8,0,2.51-.14,2.92-.6.21-.21.24-.34.29-.86h1.32ZM484.86,115.27c-.02-1.75-.79-2.18-3.88-2.18-2.75,0-3.41.41-3.55,2.18h7.43Z" style="fill: #662eef;"/>
      <path d="M490.35,112.09v1.2h.1c.52-1.03,1.39-1.3,4-1.3,2.28,0,3.23.21,3.84.87.48.53.65,1.2.65,2.69v4.48h-1.25v-3.95c0-1.42-.09-1.9-.45-2.32-.41-.5-1.2-.69-2.93-.69-1.96,0-2.95.26-3.5.93-.39.46-.46.84-.46,2.35v3.67h-1.25v-7.94h1.25Z" style="fill: #662eef;"/>
      <path d="M511.78,117.15c-.02,1.06-.21,1.63-.67,2.11-.62.65-1.51.87-3.57.87-2.75,0-3.86-.17-4.56-.7-.79-.58-1.17-1.68-1.17-3.36,0-1.87.43-2.97,1.39-3.53.69-.41,1.63-.55,3.59-.55,2.54,0,3.62.22,4.26.89.46.46.63,1.01.69,2.04h-1.3c-.03-1.49-.72-1.84-3.64-1.84-1.56,0-2.33.12-2.81.43-.57.38-.82,1.18-.82,2.64s.31,2.16,1,2.51c.48.26,1.44.36,3.16.36,2.57,0,3.14-.33,3.19-1.87h1.29Z" style="fill: #662eef;"/>
      <path d="M524.62,117.58c-.05,1.9-1.17,2.56-4.39,2.56-2.66,0-3.89-.19-4.6-.69-.81-.57-1.2-1.66-1.2-3.36,0-1.89.43-3,1.41-3.57.67-.39,1.58-.53,3.57-.53,2.73,0,3.69.22,4.43,1.05.6.7.77,1.42.81,3.31h-8.85c.03,1.03.21,1.65.58,2.04.48.5,1.34.65,3.72.65,1.8,0,2.51-.14,2.92-.6.21-.21.24-.34.29-.86h1.32ZM523.24,115.27c-.02-1.75-.79-2.18-3.88-2.18-2.75,0-3.41.41-3.55,2.18h7.43Z" style="fill: #662eef;"/>
    </g>
    <g id="AMPLIFAI">
      <path d="M316.29,66.58h-33.75l-4.95,8.83h-6.32l23.67-41.76h8.89l23.61,41.76h-6.2l-4.95-8.83ZM300.64,38.53h-2.25l-13.15,23.17h28.43l-13.02-23.17Z" style="fill: #662eef;"/>
      <path d="M347.35,33.64l22.67,35.44,22.23-35.44h11.21v41.76h-5.57v-36.57h-2.32l-23.29,36.57h-4.51l-23.54-36.57h-2.44v36.57h-5.57v-41.76h11.15Z" style="fill: #662eef;"/>
      <path d="M415.98,33.64h26.42q14.09.31,16.66,2.25c2.38,1.82,3.38,4.95,3.38,10.64s-.88,8.64-3.13,10.52c-2.19,1.94-4.01,2.44-9.14,2.57q-1.32.06-7.76.06h-20.85v15.72h-5.57v-41.76ZM442.41,54.81c10.14,0,10.96-.13,12.65-1.5,1.25-1.06,1.69-2.63,1.69-6.57,0-4.32-.31-5.7-1.57-6.64-1.69-1.25-2.32-1.38-12.77-1.56h-20.85v16.28h20.85Z" style="fill: #662eef;"/>
      <path d="M478.54,33.64v36.88h32.94v4.88h-38.51v-41.76h5.57Z" style="fill: #662eef;"/>
      <path d="M526.44,33.64v41.76h-5.57v-41.76h5.57Z" style="fill: #662eef;"/>
      <path d="M538.97,33.64h39.2v4.88h-33.62v13.27h32.12v4.88h-32.12v18.72h-5.57v-41.76Z" style="fill: #662eef;"/>
      <g style="filter: url(#outer-glow-1);">
        <path d="M629.08,68.33h-27.61l-3.57,7.08h-14.53l22.1-41.76h19.79l21.85,41.76h-14.46l-3.57-7.08ZM616.55,43.35h-2.5l-8.08,15.84h18.66l-8.08-15.84Z" style="fill: #662eef;"/>
        <path d="M668.59,33.64v41.76h-13.34v-41.76h13.34Z" style="fill: #662eef;"/>
      </g>
    </g>
  </g>
</svg>