<?xml version="1.0" encoding="UTF-8"?>
<svg id="Designs" xmlns="http://www.w3.org/2000/svg" xmlns:xlink="http://www.w3.org/1999/xlink" viewBox="0 0 388.24 84.11">
  <defs>
    <radialGradient id="radial-gradient" cx="113.12" cy="34.56" fx="113.12" fy="34.56" r="41.8" gradientUnits="userSpaceOnUse">
      <stop offset=".04" stop-color="#87e6cd" stop-opacity="0"/>
      <stop offset=".09" stop-color="#87e5cd" stop-opacity=".11"/>
      <stop offset=".21" stop-color="#89e5cd" stop-opacity=".34"/>
      <stop offset=".32" stop-color="#8ae5cd" stop-opacity=".5"/>
      <stop offset=".4" stop-color="#8ae5cd" stop-opacity=".6"/>
      <stop offset=".45" stop-color="#8be5ce" stop-opacity=".63"/>
    </radialGradient>
    <radialGradient id="radial-gradient-2" cx="45.65" cy="43.31" fx="45.65" fy="43.31" r="36.54" gradientUnits="userSpaceOnUse">
      <stop offset=".04" stop-color="#662eef" stop-opacity="0"/>
      <stop offset=".2" stop-color="#662eef" stop-opacity=".23"/>
      <stop offset=".41" stop-color="#662eef" stop-opacity=".5"/>
      <stop offset=".61" stop-color="#662eef" stop-opacity=".71"/>
      <stop offset=".78" stop-color="#662eef" stop-opacity=".87"/>
      <stop offset=".91" stop-color="#662eef" stop-opacity=".97"/>
      <stop offset="1" stop-color="#662eef"/>
    </radialGradient>
    <filter id="outer-glow-1" x="328.22" y="24.92" width="48.04" height="23.54" filterUnits="userSpaceOnUse">
      <feOffset dx="0" dy="0"/>
      <feGaussianBlur result="blur" stdDeviation="3.8"/>
      <feFlood flood-color="#9fffcd" flood-opacity=".75"/>
      <feComposite in2="blur" operator="in"/>
      <feComposite in="SourceGraphic"/>
    </filter>
  </defs>
  <g id="Mini_Logo_Horizontal_light" data-name="Mini Logo Horizontal light">
    <g>
      <g>
        <path d="M116.22,10.24c-10.65-4.16-21.71-3.13-24.14-2.84-4.15.49-9.32,2.78-8.17,7.92,1.63,7.29,3.22,14.37,3.38,19.78.26,8.63-4.67,24.46-2.63,26.92,4.2-.79,14.21-.95,21.91-4.16,3.28-1.37,10.27-8.59,17.94-14.63,7.48-5.89,15.66-10.61,16.97-11.98,2.99-3.15-1.11-8.09-4.43-11.2-5.5-5.16-15.4-7.7-20.83-9.82Z" style="fill: url(#radial-gradient); opacity: .3;"/>
        <path d="M116.14,10.43c-6.59-2.55-13.83-2.93-20.71-2.1-3.1.36-6.62.97-8.73,3.13-.85.96-1.14,1.91-.85,3.15l1.18,5.06c1.21,5.33,2.38,10.63,2.4,16.17-.23,7.25-2.28,14.15-3.36,21.2-.22,1.27-.37,2.98-.24,4.02,0,0-1.47-.53-1.47-.53,4.41-.5,8.54-.47,12.86-1.08,4.1-.64,8.4-1.19,11.75-3.85,6.67-5.23,12.43-11.77,19.33-17.08,3.38-2.69,7.01-5.12,10.47-7.48.65-.51,1.34-.82,1.71-1.51.85-2.29-1.25-4.65-2.73-6.7-5.31-6.79-13.81-9.49-21.62-12.39h0ZM116.29,10.05c8.03,3.09,17.27,4.48,23.59,10.83,3.98,3.69,6.98,9.63,1,13.17-7.18,4.83-14.5,8.87-21.21,14.32-4.35,3.25-8,7.32-12.74,10.06-5,2.19-10.41,3.22-15.76,4.07-2.11.34-4.29.63-6.23,1.06-.57.13-1.13-.1-1.47-.53-1.39-2.03-.9-4.23-.82-6.39.53-5.29,1.65-10.56,2.2-15.76.95-6.86-.69-13.57-1.96-20.3-.14-.78-.65-3.11-.8-3.88-.81-2.63-.19-6.1,2.05-7.91,3.51-2.89,7.68-2.87,11.17-2.82,7.23.21,14.33,1.57,20.97,4.1h0Z" style="fill: #87e6cd;"/>
      </g>
      <g>
        <path d="M23.44,80.19c6.83-3.09,17.45-4.46,24.89-4.72s8.69-.52,16.67-3.84c3.07-1.28,10.39-5.02,12.31-12.36,3.21-12.26,2.34-31.78-.9-44.3-2.1-8.09-7.84-6.64-13.5-9.37-8.62-1.41-18.66-3.07-26.92,1.53-13.64,5.15-16.58,15.23-18.7,26.8-2.12,11.58-2.6,20.57-4.11,29.36-.66,3.85-1.73,9.93-.85,14.19.6,2.87,2.9,4.86,3.73,4.99,2.09.32,5.56-1.46,7.39-2.28Z" style="fill: url(#radial-gradient-2); opacity: .3;"/>
        <path d="M23.35,80.01c7.12-3.08,14.86-4.35,22.51-5.36,5.11-.49,9.86-.75,14.52-3.03,0,0,3.47-1.55,3.47-1.55,5.23-2.28,10.47-6.39,11.48-11.99,2.86-13.34,2.34-27.64-.2-41.05-.57-3.47-1.74-6.57-5.37-7.78-2.22-.85-4.89-1.41-7.32-2.69,0,0,.29.09.29.09-6.67-1.31-13.47-2.67-20.19-1.28-2.23.43-4.36,1.27-6.33,2.37-14.82,5.56-16.01,18.69-18.11,32.41-.78,5.57-1.61,11.63-2.56,17.18-.89,5.69-2.79,11.28-2.94,17.05-.02,1.89.07,3.8,1.05,5.38.58.95,1.33,1.92,2.33,2.41,2.59.35,5.01-1.18,7.36-2.15h0ZM23.52,80.38c-2.41,1.01-4.96,2.65-7.71,2.33-7.66-3.78-3.33-18.81-3.19-25.77,1.04-11.64,1.86-23.48,6.11-34.53,2.89-7.59,9.42-13.35,17.02-15.9,1.61-.9,4.38-1.94,6.53-2.36,6.87-1.43,13.93-.47,20.79.4,2.33,1,4.8,1.39,7.56,2.17,6.3,1.59,7.59,7.81,8.69,13.36,1.52,7.69,2.15,15.49,2.07,23.33-.15,5.91-.6,11.97-2.41,17.76-3.3,8.85-12.74,12.65-21.2,14.83-3.87.88-7.98.52-11.8.55-7.6.1-15.4.86-22.46,3.83h0Z" style="fill: #662eef;"/>
      </g>
      <g>
        <g id="lower">
          <g>
            <g>
              <polyline points="75.88 64.47 79.13 52.91 89.5 49.65 99.98 40.93 103.24 35.72" style="fill: none; stroke: #3bc4f8; stroke-miterlimit: 10; stroke-width: 2.45px;"/>
              <path d="M104.76,36.78c.54-.86.28-2-.58-2.54-.86-.54-2-.28-2.54.58-.54.86-.28,2,.58,2.54s2,.28,2.54-.58Z" style="fill: #3bc4f8;"/>
            </g>
            <g>
              <polyline points="94.12 38.26 93.4 45.73 89.5 49.65" style="fill: none; stroke: #3bc4f8; stroke-miterlimit: 10; stroke-width: 1.64px;"/>
              <path d="M92.58,38.19c.08-.85.83-1.46,1.68-1.38s1.46.83,1.38,1.68c-.08.85-.83,1.46-1.68,1.38-.85-.08-1.46-.83-1.38-1.68Z" style="fill: #3bc4f8;"/>
            </g>
            <g>
              <polyline points="116.15 20.06 105.61 41.95 89.97 49.61" style="fill: none; stroke: #3bc4f8; stroke-miterlimit: 10; stroke-width: 1.64px;"/>
              <path d="M114.74,19.46c.37-.77,1.29-1.09,2.05-.72s1.09,1.29.72,2.05c-.37.77-1.29,1.09-2.05.72s-1.09-1.29-.72-2.05Z" style="fill: #3bc4f8;"/>
            </g>
          </g>
          <g>
            <g>
              <polyline points="24.94 37.41 38.91 45.27 65.82 48.34 75.59 63.85 77.11 70.4" style="fill: none; stroke: #3bc4f8; stroke-miterlimit: 10; stroke-width: 2.45px;"/>
              <path d="M24.11,39.06c-.89-.5-1.2-1.63-.7-2.51s1.63-1.2,2.51-.7,1.2,1.63.7,2.51-1.63,1.2-2.51.7Z" style="fill: #3bc4f8;"/>
            </g>
            <g>
              <g>
                <polyline points="22.67 74.23 40.03 69.48 58.02 47.45" style="fill: none; stroke: #3bc4f8; stroke-miterlimit: 10; stroke-width: 1.64px;"/>
                <path d="M23.15,75.69c-.82.22-1.67-.26-1.89-1.08-.22-.82.26-1.67,1.08-1.89.82-.22,1.67.26,1.89,1.08.22.82-.26,1.67-1.08,1.89Z" style="fill: #3bc4f8;"/>
              </g>
              <g>
                <polyline points="57.55 47.39 33.6 61.4 21.98 64.58" style="fill: none; stroke: #3bc4f8; stroke-miterlimit: 10; stroke-width: 1.64px;"/>
                <path d="M21.65,63.08c-.82.22-1.3,1.07-1.08,1.89.22.82,1.07,1.3,1.89,1.08.82-.22,1.3-1.07,1.08-1.89-.22-.82-1.07-1.3-1.89-1.08Z" style="fill: #3bc4f8;"/>
              </g>
            </g>
            <g>
              <polyline points="40.99 18.23 42.88 29.81 39.4 39.02 60.31 47.71" style="fill: none; stroke: #3bc4f8; stroke-linecap: round; stroke-linejoin: round; stroke-width: 1.64px;"/>
              <path d="M39.48,18.56c-.14-.84.43-1.63,1.27-1.77.84-.14,1.63.43,1.77,1.27.14.84-.43,1.63-1.27,1.77-.84.14-1.63-.43-1.77-1.27Z" style="fill: #3bc4f8;"/>
            </g>
            <g>
              <polyline points="33.79 18.74 36.47 22.93 39.4 39.02" style="fill: none; stroke: #3bc4f8; stroke-miterlimit: 10; stroke-width: 1.64px;"/>
              <circle cx="33.83" cy="18.81" r="1.54" transform="translate(-4.78 16.09) rotate(-25.04)" style="fill: #3bc4f8;"/>
            </g>
          </g>
          <g>
            <polyline points="47.87 21.87 53.33 28.82 57.08 31.15 58.19 24.85 56.71 18.57" style="fill: none; stroke: #3bc4f8; stroke-linejoin: round; stroke-width: 1.64px;"/>
            <polyline points="56.8 29.52 59.42 38.1 65.82 48.34" style="fill: none; stroke: #3bc4f8; stroke-miterlimit: 10; stroke-width: 2.45px;"/>
          </g>
        </g>
        <g id="upper">
          <g>
            <polyline points="69.01 1.59 68.06 8.69 60.94 15.04 29.19 40.21 30.34 68.63" style="fill: none; stroke: #ffe98a; stroke-miterlimit: 10; stroke-width: 2.45px;"/>
            <path d="M28.5,68.61c.04,1.02.9,1.81,1.92,1.77s1.81-.9,1.77-1.92c-.04-1.02-.9-1.81-1.92-1.77-1.02.04-1.81.9-1.77,1.92Z" style="fill: #ffe98a;"/>
          </g>
          <g>
            <polyline points="61.3 39.61 64.28 31.73 63.33 13.69" style="fill: none; stroke: #ffe98a; stroke-miterlimit: 10; stroke-width: 2.45px;"/>
            <path d="M63.03,40.26c-.36.95-1.43,1.43-2.38,1.07-.95-.36-1.43-1.43-1.07-2.38.36-.95,1.43-1.43,2.38-1.07.95.36,1.43,1.43,1.07,2.38Z" style="fill: #ffe98a;"/>
          </g>
          <g>
            <polyline points="23.04 28.28 32.73 23.7 52.63 21.86" style="fill: none; stroke: #ffe98a; stroke-miterlimit: 10; stroke-width: 1.64px;"/>
            <path d="M23.77,29.64c-.77.36-1.68.03-2.05-.73-.36-.77-.03-1.68.73-2.05s1.68-.03,2.05.73c.36.77.03,1.68-.73,2.05Z" style="fill: #ffe98a;"/>
          </g>
          <g>
            <polyline points="52.13 21.96 33.84 26.54 27.96 32.21" style="fill: none; stroke: #ffe98a; stroke-miterlimit: 10; stroke-width: 1.64px;"/>
            <path d="M26.95,31.05c-.61.59-.63,1.56-.04,2.17s1.56.63,2.17.04.63-1.56.04-2.17c-.59-.61-1.56-.63-2.17-.04Z" style="fill: #ffe98a;"/>
          </g>
          <polyline points="85.74 17.59 74.95 19.61 63.33 13.69" style="fill: none; stroke: #ffe98a; stroke-miterlimit: 10; stroke-width: 2.45px;"/>
          <g>
            <polyline points="109.77 14.22 100.08 12.06 78.64 19.02" style="fill: none; stroke: #ffe98a; stroke-miterlimit: 10; stroke-width: 1.64px;"/>
            <path d="M110.03,12.71c.83.18,1.35,1.01,1.17,1.84-.18.83-1.01,1.35-1.84,1.17-.83-.18-1.35-1.01-1.17-1.84.18-.83,1.01-1.35,1.84-1.17Z" style="fill: #ffe98a;"/>
          </g>
          <g>
            <polyline points="119.38 29.33 98.18 17.2 78.64 19.02" style="fill: none; stroke: #ffe98a; stroke-miterlimit: 10; stroke-width: 1.64px;"/>
            <path d="M120.08,27.96c.74.42.99,1.36.57,2.1s-1.36.99-2.1.57c-.74-.42-.99-1.36-.57-2.1.42-.74,1.36-.99,2.1-.57Z" style="fill: #ffe98a;"/>
          </g>
          <g>
            <polyline points="113.27 35.02 97.38 21.75 79.11 18.97" style="fill: none; stroke: #ffe98a; stroke-miterlimit: 10; stroke-width: 1.64px;"/>
            <path d="M114.19,33.8c.65.54.74,1.51.19,2.17-.54.65-1.51.74-2.17.19-.65-.54-.74-1.51-.19-2.17s1.51-.74,2.17-.19Z" style="fill: #ffe98a;"/>
          </g>
          <g>
            <line x1="64.28" y1="31.73" x2="71.53" y2="32.31" style="fill: none; stroke: #ffe98a; stroke-miterlimit: 10; stroke-width: 1.64px;"/>
            <path d="M71.33,33.84c.85.07,1.59-.56,1.66-1.41s-.56-1.59-1.41-1.66c-.85-.07-1.59.56-1.66,1.41-.07.85.56,1.59,1.41,1.66Z" style="fill: #ffe98a;"/>
          </g>
        </g>
      </g>
    </g>
    <g id="AMPLIFAI">
      <path d="M177.68,43.48h-19.02l-2.79,4.98h-3.56l13.34-23.54h5.01l13.31,23.54h-3.49l-2.79-4.98ZM168.86,27.67h-1.27l-7.41,13.06h16.02l-7.34-13.06Z" style="fill: #662eef;"/>
      <path d="M195.19,24.92l12.78,19.98,12.53-19.98h6.32v23.54h-3.14v-20.61h-1.31l-13.13,20.61h-2.54l-13.27-20.61h-1.38v20.61h-3.14v-23.54h6.28Z" style="fill: #662eef;"/>
      <path d="M233.87,24.92h14.89q7.94.18,9.39,1.27c1.34,1.02,1.91,2.79,1.91,6s-.49,4.87-1.76,5.93c-1.24,1.09-2.26,1.38-5.15,1.45q-.74.04-4.38.04h-11.75v8.86h-3.14v-23.54ZM248.77,36.85c5.72,0,6.18-.07,7.13-.85.71-.6.95-1.48.95-3.71,0-2.44-.18-3.21-.88-3.74-.95-.71-1.31-.78-7.2-.88h-11.75v9.18h11.75Z" style="fill: #662eef;"/>
      <path d="M269.13,24.92v20.79h18.56v2.75h-21.71v-23.54h3.14Z" style="fill: #662eef;"/>
      <path d="M296.13,24.92v23.54h-3.14v-23.54h3.14Z" style="fill: #662eef;"/>
      <path d="M303.19,24.92h22.09v2.75h-18.95v7.48h18.11v2.75h-18.11v10.55h-3.14v-23.54Z" style="fill: #662eef;"/>
      <g style="filter: url(#outer-glow-1);">
        <path d="M353.98,44.47h-15.56l-2.01,3.99h-8.19l12.46-23.54h11.15l12.32,23.54h-8.15l-2.01-3.99ZM346.92,30.39h-1.41l-4.55,8.93h10.52l-4.55-8.93Z" style="fill: #662eef;"/>
        <path d="M376.25,24.92v23.54h-7.52v-23.54h7.52Z" style="fill: #662eef;"/>
      </g>
    </g>
  </g>
</svg>